<?xml version="1.0" encoding="utf-8"?>
<!-- Generator: Adobe Illustrator 24.0.1, SVG Export Plug-In . SVG Version: 6.00 Build 0)  -->
<svg version="1.1" id="Layer_1" xmlns="http://www.w3.org/2000/svg" xmlns:xlink="http://www.w3.org/1999/xlink" x="0px" y="0px"
	 viewBox="0 0 500 500" style="enable-background:new 0 0 500 500;" xml:space="preserve">
<style type="text/css">
	.st0{fill:#FFFFFF;}
	.st1{fill:#1CABE2;}
</style>
<path class="st0" d="M250,500L250,500C111.9,500,0,388.1,0,250v0C0,111.9,111.9,0,250,0h0c138.1,0,250,111.9,250,250v0
	C500,388.1,388.1,500,250,500z"/>
<circle class="st0" cx="-282.5" cy="370.5" r="17.5"/>
<circle class="st0" cx="-201" cy="370.5" r="17.5"/>
<g>
	<path class="st1" d="M250,240.9c42.8,0,77.5-34.8,77.5-77.5v-40.2c0-0.8,0-1.7,0-2.5C329.5,69.6,286.3,40,250,40
		c-36.3,0-77.5,29.3-77.5,80.7h0c0,0.8,0,1.7,0,2.5v40.2C172.5,206.1,207.2,240.9,250,240.9z"/>
	
		<ellipse transform="matrix(0.7071 -0.7071 0.7071 0.7071 -121.5956 321.8422)" class="st1" cx="327.7" cy="307.7" rx="11.6" ry="11.6"/>
	<path class="st1" d="M443.5,351.6c-24.1-41.1-60.7-73.1-104.4-91.8c2.8,6.1,4.1,13,3.6,20l-1.7,15.4c3.5,3.7,5.5,8.9,4.9,14.6
		c-0.9,8.4-7.8,15.2-16.3,16.1c-11.5,1.1-21.1-8.4-20-19.9c0.8-8.6,7.9-15.6,16.5-16.4c2.5-0.2,4.8,0.1,7,0.7l1.3-11.9
		c0.6-8.9-2.7-17.5-8.4-23.8c-3-1.1-6-2.1-9-3c-1.2-0.4-2.6-0.1-3.5,0.9c-6.3,6.2-12.9,12-19.5,17.4c-25.2,20.5-61.3,20.7-86.8,0.7
		c-7.5-5.9-14.8-12.1-20.8-18c-0.9-0.9-2.3-1.2-3.5-0.9c-12.6,3.9-24.7,8.9-36.3,14.8c-4.8,8.2-6.7,18.2-4.5,28l4.8,18.1
		c-0.2,0.5-0.5,1.1-0.7,1.6c21-9.7,46.3-2.6,59.2,17h0.1l16.4,27.4l-9.2,5.5l-18.1,10.8l-5.6-9.3l18.1-10.8l-9.2-15.4
		c-0.2-0.3-0.4-0.7-0.6-1c-10.3-17.2-32.6-22.9-49.9-12.6c-16.8,10-22.5,31.4-13.4,48.4l10.7,17.9l18.1-10.8l5.6,9.3l-18.1,10.8
		l-9.3,5.5l-16.4-27.4h0.1c-11.4-20.8-5.4-46.7,13.5-60.6l-5.6-21.4h0.1c-1.8-7.9-1.5-15.9,0.4-23.4c-31.3,19-57.6,45.4-76.3,77.4
		c-0.6,1.1-0.6,2.5,0,3.6c39.9,68,114,110.2,193.5,110.2s153.6-42.2,193.5-110.2C444.1,354,444.1,352.7,443.5,351.6z M369.3,390.3
		c0,1.4-1.4,2.5-2.8,2.5h-17.7c-1.4,0-3,1.2-3,2.7v18.3c0,1.4-0.8,2.5-2.2,2.5h-15.9c-1.4,0-2.8-1.1-2.8-2.5v-18.3
		c0-1.4-1-2.7-2.4-2.7h-18.4c-1.4,0-2.6-1.1-2.6-2.5v-15.7c0-1.4,1.2-2.6,2.6-2.6h18.4c1.4,0,2.4-1.2,2.4-2.6v-18.3
		c0-1.4,1.4-2.6,2.8-2.6h15.7c1.4,0,2.4,1.1,2.4,2.6v18.4c0,1.4,1.4,2.6,2.8,2.6h17.9c1.4,0,2.8,1.2,2.8,2.7V390.3z"/>
</g>
</svg>
